PathFileType	4	(X/Y/Z)	/Users/niels/Desktop/University/Third Semester/Perception and Action/Exam/Gymnastics Motion Tracking/Code for Gym Tracking/Scripts/Analyzed Data/Start Salto/st_salto_good_id12_1_Sports2D/st_salto_good_id12_1_Sports2D_px_person00.trc
DataRate	CameraRate	NumFrames	NumMarkers	Units	OrigDataRate	OrigDataStartFrame	OrigNumFrames
29.83050847457627	29.83050847457627	8	22	m	29.83050847457627	132	177
Frame#	Time	Hip			RHip			RKnee			RAnkle			RBigToe			RSmallToe			RHeel			LHip			LKnee			LAnkle			LBigToe			LSmallToe			LHeel			Neck			Head			Nose			RShoulder			RElbow			RWrist			LShoulder			LElbow			LWrist		
		X1	Y1	Z1	X2	Y2	Z2	X3	Y3	Z3	X4	Y4	Z4	X5	Y5	Z5	X6	Y6	Z6	X7	Y7	Z7	X8	Y8	Z8	X9	Y9	Z9	X10	Y10	Z10	X11	Y11	Z11	X12	Y12	Z12	X13	Y13	Z13	X14	Y14	Z14	X15	Y15	Z15	X16	Y16	Z16	X17	Y17	Z17	X18	Y18	Z18	X19	Y19	Z19	X20	Y20	Z20	X21	Y21	Z21	X22	Y22	Z22
132	4.425	1.6835794677609113	-0.5220708716764877	0.0	1.7096730510352345	-0.5151983070154261	0.0	1.7657184322644308	-0.6709900116962142	0.0	1.7519955208233502	-0.8112372623962606	0.0	1.777913713265507	-0.8145584567113077	0.0	1.781009861638086	-0.82129246062691	0.0	1.7424118395835775	-0.8231745133187878	0.0	1.65765659620383	-0.527000306104504	0.0	1.7055084092146526	-0.6702101796561999	0.0	1.6364133591531593	-0.7720532592406782	0.0	1.6630134350905927	-0.8065952352427785	0.0	1.6436864708947987	-0.8015758942009589	0.0	1.6206619118389043	-0.7819836227230529	0.0	1.649813665863278	-0.3339438796885264	0.0	1.6617670358119698	-0.2511842457685547	0.0	1.6910323370693605	-0.2839219784563428	0.0	1.6858205449515724	-0.3456535087989417	0.0	1.6752995034193714	-0.4288012283565952	0.0	1.7552819235585533	-0.47437632972269006	0.0	1.6049972379986286	-0.37057569955717773	0.0	1.547065369579321	-0.44550625538836136	0.0	1.5260175848722346	-0.5230999226651899	0.0
133	4.458522727272728	1.691407727531451	-0.5222459085063854	0.0	1.7176107298395549	-0.5166432585529375	0.0	1.7747165276991677	-0.6694874291295411	0.0	1.7535637471826138	-0.8073617985971634	0.0	1.782464001644792	-0.8128802819869013	0.0	1.7828604825353542	-0.820096701257516	0.0	1.7419772432596496	-0.8196723957202809	0.0	1.6660721875516056	-0.5280145152378383	0.0	1.718033483116202	-0.6682005456317767	0.0	1.643074743571651	-0.7603238831004565	0.0	1.6675002184674348	-0.8038026326506789	0.0	1.6510957205320818	-0.7974372250073258	0.0	1.6260318662149575	-0.7678215072824601	0.0	1.6655905911243358	-0.3339834139613332	0.0	1.6793190388732315	-0.25134861366663075	0.0	1.7076510523802504	-0.28465912166289364	0.0	1.7016500165873716	-0.3459984481306037	0.0	1.6984501380816424	-0.43152033227012704	0.0	1.7777987581289978	-0.4849459990222095	0.0	1.6198468642615678	-0.37139612913012704	0.0	1.5657232362889495	-0.4490973610102177	0.0	1.542962691634919	-0.5273252319734762	0.0
134	4.492045454545455	1.6992899783100395	-0.5219359086589545	0.0	1.7253595656667298	-0.5176014573902048	0.0	1.7851266411975912	-0.666501685994913	0.0	1.755694692210292	-0.8023962695045512	0.0	1.7883600347790598	-0.8112734941606065	0.0	1.7854952044182566	-0.8185721746742661	0.0	1.7422704519578052	-0.8150861782649831	0.0	1.6748370095781422	-0.5286083959409774	0.0	1.7310634527204751	-0.6647780784861479	0.0	1.6509026290516113	-0.7479041462038981	0.0	1.6719863490366322	-0.7991661531554877	0.0	1.6585294845259724	-0.7915838551693504	0.0	1.6329130692222253	-0.7528877559156572	0.0	1.6807160211284835	-0.33384020333000913	0.0	1.6968441145973197	-0.25089329470628235	0.0	1.7236835635519518	-0.285309044722942	0.0	1.7168326870248807	-0.3457756147987767	0.0	1.7206670867371952	-0.4330010108975112	0.0	1.7993393604444559	-0.49358102196329	0.0	1.6343086766300878	-0.37135134772153067	0.0	1.5843728823718308	-0.4516164226422058	0.0	1.5610988142336735	-0.5308258147512747	0.0
135	4.525568181818182	1.7074207054685944	-0.5210570530790589	0.0	1.7332036160449948	-0.5177857910313531	0.0	1.796416478936057	-0.6626085863513534	0.0	1.7581904169125298	-0.7969194996293659	0.0	1.794448207220606	-0.8096736957002189	0.0	1.7884003584677517	-0.8168269800303625	0.0	1.7432841946153745	-0.8099649616346082	0.0	1.683804093261416	-0.5284832731220385	0.0	1.7447444984928844	-0.6600795176147043	0.0	1.6596189049849275	-0.7353942881943101	0.0	1.6766058794468717	-0.7925710996286426	0.0	1.6658149307612389	-0.7840751409014064	0.0	1.6407931757727625	-0.7381556738020506	0.0	1.6951987581657768	-0.33343744927337154	0.0	1.7140165573053703	-0.2499468239578731	0.0	1.7389832556505551	-0.28587597854701924	0.0	1.7314981006425305	-0.3450085690077081	0.0	1.7413686053395918	-0.4333357477693482	0.0	1.8195637491053642	-0.4998855791709791	0.0	1.648160664303623	-0.3704638022241349	0.0	1.6025655360809268	-0.4530826651408697	0.0	1.5803498188446332	-0.5335590215171094	0.0
136	4.5590909090909095	1.7160420630029194	-0.5194888881857068	0.0	1.741578290273111	-0.5168832239867982	0.0	1.8082317559284675	-0.6582461490934779	0.0	1.7608587393770316	-0.7912858785462618	0.0	1.8000472406168861	-0.8079361313833997	0.0	1.7913716371541297	-0.8148864934493874	0.0	1.74476336415619	-0.8046639324749786	0.0	1.692949860149051	-0.5273886760138164	0.0	1.759395770536421	-0.6542710690275967	0.0	1.6691284337072951	-0.7230321517511142	0.0	1.682035889843387	-0.7842521442803077	0.0	1.6734526026740726	-0.7751816390789263	0.0	1.6493599762391267	-0.7240882499740859	0.0	1.709363373577941	-0.3326265180226269	0.0	1.7308070095650459	-0.2486143120447977	0.0	1.7538580560151567	-0.2862935571978681	0.0	1.7460013459321515	-0.34365089300346174	0.0	1.7605168264684863	-0.43272768588074406	0.0	1.83856823827253	-0.5037233432617156	0.0	1.6615371733080004	-0.36871952087071225	0.0	1.6202731650170188	-0.4536645469356892	0.0	1.600971500248812	-0.5353434643469358	0.0
137	4.5926136363636365	1.7253158678355243	-0.5171647535698785	0.0	1.750736962180844	-0.5147687797267854	0.0	1.8203082067557128	-0.6536886762705766	0.0	1.763567767583761	-0.7855523053633023	0.0	1.804818526071331	-0.8059987731933043	0.0	1.7943651458576768	-0.8126645639305207	0.0	1.7464072047449954	-0.7991739769377559	0.0	1.7023300247755564	-0.5252742812097758	0.0	1.7751418007857382	-0.6474732021670261	0.0	1.67947073942401	-0.7109619362309226	0.0	1.6889089711089909	-0.7747898502430056	0.0	1.6819792954745407	-0.7653877828433003	0.0	1.6586558862087228	-0.710876523234392	0.0	1.7235101303513496	-0.3312989720904958	0.0	1.747372460696398	-0.24695703282820977	0.0	1.7687135352266075	-0.28651210076859496	0.0	1.7606144421360035	-0.341688224636495	0.0	1.778418591026783	-0.4313961695185696	0.0	1.8565036404778528	-0.5050842199810207	0.0	1.6746845418220362	-0.36611906662268834	0.0	1.6376787484598574	-0.45352222490818833	0.0	1.6231526849262292	-0.5357471585231657	0.0
138	4.6261363636363635	1.7351555404859778	-0.5140993902543992	0.0	1.7605422825286776	-0.5115905139485483	0.0	1.8322758082956232	-0.649157103449055	0.0	1.7662601485501506	-0.7796678618348152	0.0	1.8085303673658784	-0.8039364392275268	0.0	1.7972665717139344	-0.8100558504448638	0.0	1.7480302985130376	-0.7932746138124622	0.0	1.7118890957538015	-0.5222637228749443	0.0	1.7915970694699168	-0.6397997037321854	0.0	1.6906275946591853	-0.6995500817557336	0.0	1.697470440364561	-0.7649401010900084	0.0	1.6915835870563092	-0.7553616144315408	0.0	1.668819120907841	-0.6988206357144149	0.0	1.7376058001370798	-0.3294769125744035	0.0	1.7637297275588286	-0.24498636352184197	0.0	1.7835956941584405	-0.2864731843860494	0.0	1.7752695703457984	-0.33919365245786337	0.0	1.7953260530471205	-0.42954492120257487	0.0	1.8731257895941733	-0.5039708678707582	0.0	1.6876238156108831	-0.3627854592607301	0.0	1.654742767310333	-0.45271092699900084	0.0	1.6465606107835233	-0.5340505562633867	0.0
139	4.659659090909091	1.7452793451023336	-0.5104053092065467	0.0	1.7706463489342639	-0.5077209279828752	0.0	1.8437886150993024	-0.6448477371314714	0.0	1.7689896309365127	-0.7736464196217759	0.0	1.8110084101720776	-0.801939001989764	0.0	1.7998478110011678	-0.8070905986034868	0.0	1.7496529928082794	-0.7868074186562568	0.0	1.7214368646015392	-0.5185811659255888	0.0	1.8081031838884538	-0.6313101728022504	0.0	1.702503038620528	-0.6892840288918819	0.0	1.707610605813303	-0.7552943068481399	0.0	1.702156982673318	-0.7457546699754408	0.0	1.6798412037316792	-0.6882971922470924	0.0	1.7514275746852226	-0.3273274003568099	0.0	1.7797555091530723	-0.24265777247528417	0.0	1.7982049643324527	-0.2860412148560782	0.0	1.7897462113151679	-0.3362992881558985	0.0	1.8114078905951514	-0.4273224459278001	0.0	1.8878343157886406	-0.5004235471663449	0.0	1.7002161497396973	-0.35897618311133933	0.0	1.6711867981652697	-0.45115348547307993	0.0	1.67050479542523	-0.5293612789581884	0.0
